<?xml version="1.0" encoding="UTF-8"?>
<!DOCTYPE svg PUBLIC "-//W3C//DTD SVG 1.1//EN" "http://www.w3.org/Graphics/SVG/1.1/DTD/svg11.dtd">
<!-- Creator: CorelDRAW 2020 (64-Bit) -->
<svg xmlns="http://www.w3.org/2000/svg" xml:space="preserve" width="33.2755mm" height="13.1196mm" version="1.1" style="shape-rendering:geometricPrecision; text-rendering:geometricPrecision; image-rendering:optimizeQuality; fill-rule:evenodd; clip-rule:evenodd"
viewBox="0 0 581.73 229.36"
 xmlns:xlink="http://www.w3.org/1999/xlink"
 xmlns:xodm="http://www.corel.com/coreldraw/odm/2003">
 <defs>
  <style type="text/css">
   <![CDATA[
    .fil0 {fill:#EB2323}
    .fil2 {fill:#EB2323;fill-rule:nonzero}
    .fil1 {fill:url(#id0)}
   ]]>
  </style>
  <linearGradient id="id0" gradientUnits="objectBoundingBox" x1="7.12099e-13%" y1="50%" x2="100%" y2="50%">
   <stop offset="0" style="stop-opacity:1; stop-color:#780000"/>
   <stop offset="0.478431" style="stop-opacity:1; stop-color:#B21414"/>
   <stop offset="1" style="stop-opacity:1; stop-color:#ED2828"/>
  </linearGradient>
 </defs>
 <g id="Capa_x0020_1">
  <metadata id="CorelCorpID_0Corel-Layer"/>
  <g id="_2567995027344">
   <circle class="fil0" cx="266.71" cy="4.37" r="4.37"/>
   <circle class="fil0" cx="290.85" cy="14.05" r="3.06"/>
   <ellipse class="fil0" transform="matrix(0.610979 0.610979 -0.992698 0.992698 347.077 19.2584)" rx="4.55" ry="4.05"/>
   <path class="fil0" d="M270.93 9.96c0.26,0.13 0.52,0.39 0.77,0.77 0.26,0.39 0.51,0.9 0.71,1.42 0.19,0.52 0.32,1.03 0.45,1.61 0.13,0.58 0.26,1.22 0.39,1.86 0.13,0.63 0.26,1.25 0.39,1.77 0.13,0.52 0.26,0.92 0.39,1.39 0.13,0.46 0.26,0.98 0.39,1.56 0.13,0.58 0.26,1.22 0.39,2.06 0.13,0.84 0.26,1.87 0.39,2.71 0.13,0.84 0.26,1.48 0.32,2.19 0.06,0.71 0.06,1.48 -0.06,1.87 -0.13,0.39 -0.39,0.39 -0.58,0.32 -0.19,-0.06 -0.32,-0.19 -0.45,-0.7 -0.13,-0.5 -0.26,-1.38 -0.39,-2.38 -0.13,-1 -0.26,-2.12 -0.39,-2.9 -0.13,-0.79 -0.26,-1.24 -0.39,-1.72 -0.13,-0.48 -0.26,-1 -0.39,-1.54 -0.13,-0.55 -0.26,-1.12 -0.39,-1.57 -0.13,-0.45 -0.26,-0.78 -0.65,-1.71 -0.39,-0.94 -1.03,-2.48 -1.48,-3.49 -0.45,-1.01 -0.71,-1.48 -0.84,-1.86 -0.13,-0.39 -0.13,-0.69 0,-0.97 0.13,-0.28 0.39,-0.54 0.65,-0.67 0.26,-0.13 0.51,-0.13 0.77,0z"/>
   <path class="fil0" d="M291.6 19.14c0.35,0.1 0.48,0.23 0.54,0.74 0.06,0.52 0.06,1.42 -0.19,3.09 -0.26,1.67 -0.77,4.12 -1.29,5.99 -0.52,1.87 -1.03,3.16 -1.42,3.8 -0.39,0.64 -0.65,0.64 -0.77,0.52 -0.13,-0.13 -0.13,-0.39 0,-0.93 0.13,-0.55 0.39,-1.38 0.71,-2.31 0.32,-0.93 0.71,-1.96 0.88,-3.83 0.17,-1.87 0.11,-4.59 0.37,-5.92 0.26,-1.33 0.83,-1.26 1.18,-1.16z"/>
   <path class="fil0" d="M341.71 26.2c0.39,-0.13 0.77,-0.13 1.03,-0.06 0.26,0.06 0.38,0.19 0.45,0.45 0.06,0.26 0.06,0.65 -0.06,1.1 -0.13,0.45 -0.39,0.97 -0.64,1.48 -0.26,0.52 -0.52,1.03 -0.84,1.68 -0.32,0.64 -0.71,1.42 -1.19,2.58 -0.48,1.16 -1.06,2.7 -1.58,4.45 -0.52,1.74 -0.97,3.67 -1.32,5.41 -0.35,1.74 -0.61,3.28 -0.81,4.12 -0.19,0.84 -0.32,0.97 -0.51,1.09 -0.19,0.13 -0.45,0.26 -0.52,-0.58 -0.06,-0.84 0.06,-2.64 0.26,-4.12 0.19,-1.48 0.45,-2.64 0.97,-4.7 0.52,-2.06 1.29,-5.03 1.93,-7.22 0.65,-2.19 1.16,-3.61 1.61,-4.45 0.45,-0.84 0.84,-1.1 1.23,-1.22z"/>
   <path class="fil1" d="M325.85 53.52c0.34,-1.36 0.51,-2.19 0.39,-3.87 -0.13,-1.67 -0.06,-4 -1.16,-6.57 -1.1,-2.58 -2.9,-5.83 -6.19,-9.28 -3.29,-3.45 -7.85,-7.55 -13.05,-11.15 -0.19,3.35 0.3,6.87 -0.69,9.22 -0.98,2.35 -1.83,3.28 -2.63,4.12 -0.81,0.84 -1.94,1.62 -2.59,2.07 2.06,0.9 4.62,1.86 6.56,2.76 1.93,0.9 3.74,1.8 5.54,2.71 0.21,-1.03 0.11,-2.15 0.09,-3.15 -0.03,-1 -0.35,-2.06 -0.58,-3.09 0.79,0.68 2.08,2.01 2.66,3.26 0.58,1.26 1.11,3.12 1.17,4.93 1.72,1.03 3.45,2.05 5.31,3.4 1.86,1.35 3.17,2.97 5.17,4.64z"/>
   <path class="fil1" d="M340.74 186.24c-3.66,-2.64 -7.32,-5.27 -10.88,-8.98 -3.57,-3.7 -7.05,-8.47 -9.57,-13.24 -2.51,-4.77 -4.06,-9.54 -5.29,-15.3 -1.23,-5.77 -2.13,-12.53 -2.71,-17.49 -0.58,-4.96 -0.84,-8.12 -1.29,-11.79 -0.45,-3.67 -1.1,-7.86 -2.06,-12.05 -0.97,-4.19 -2.26,-8.38 -4.38,-13.66 -2.12,-5.29 -5.08,-11.67 -10.24,-16.83 -5.16,-5.16 -12.52,-9.08 -19.88,-13 3.74,3.22 7.48,6.44 11.61,10.68 4.13,4.24 8.66,9.5 12.07,18.3 3.42,8.8 5.73,21.13 8.07,35.3 2.35,14.17 4.73,30.18 9.82,41.49 5.09,11.31 12.89,17.91 18.9,22.41 6,4.5 10.21,6.9 15.97,8.98 5.76,2.08 13.09,3.86 19.11,7.62 6.02,3.76 10.74,9.52 15.46,15.27 1,-0.2 2,-0.4 3.16,-0.27 1.16,0.13 2.48,0.58 3.59,1.16 1.11,0.58 2.02,1.28 2.47,2.05 0.45,0.77 0.45,1.62 0.45,2.46 -4,-0.26 -7.99,-0.52 -11.36,-0.84 -3.37,-0.33 -6.1,-0.73 -8.84,-1.13 -0.18,-1.52 -0.37,-3.04 -1.64,-4.97 -1.28,-1.93 -3.65,-4.26 -5.54,-5.88 -1.89,-1.62 -3.31,-2.52 -6.02,-3.94 -2.71,-1.42 -6.71,-3.35 -10.97,-5.38 -4.27,-2.03 -8.8,-4.15 -12.67,-6.66 -3.87,-2.51 -7.07,-5.42 -10.27,-8.33 -16.11,-2.81 -32.22,-5.62 -44.84,-12.41 -12.62,-6.78 -21.76,-17.54 -28.06,-28.93 -6.3,-11.39 -9.77,-23.42 -11.96,-35.21 -2.2,-11.8 -3.12,-23.36 -5.86,-35.08 -2.74,-11.72 -7.29,-23.59 -13.94,-31.17 -6.65,-7.58 -15.4,-10.86 -24.15,-14.14 14.79,-3.79 29.58,-7.59 44.63,-7.66 15.05,-0.07 30.37,3.58 39.68,6.05 9.3,2.47 12.59,3.76 16.81,5.76 4.22,2 9.38,4.7 14.09,7.8 4.71,3.09 6.27,3.91 12.01,8.97 5.74,5.05 11.99,14.07 15.52,20.42 -2,-4.5 -4,-9 -6.03,-12.19 -2.03,-3.19 -4.1,-5.08 -6.17,-6.97 5.67,-7.01 11.33,-14.01 20.07,-18.61 8.74,-4.6 20.55,-6.81 32.36,-9.01 -2.29,2.19 -4.57,4.39 -6.25,8.14 -1.68,3.76 -2.74,9.07 -2.41,16.16 0.34,7.09 2.08,15.94 3.82,24.17 1.74,8.23 3.48,15.83 4.22,22.15 0.74,6.31 0.48,11.34 -1.19,16.94 -1.68,5.6 -4.77,11.79 -8.7,16.75 -3.93,4.96 -8.7,8.7 -13.28,11.79 -4.58,3.09 -8.96,5.54 -12.25,8.05 -3.29,2.51 -5.48,5.09 -6.77,7.49 -1.29,2.4 -1.68,4.63 -1.74,7.28 -0.06,2.64 0.19,5.69 0.8,8.67 0.6,2.97 1.55,5.87 2.5,8.76zm18.58 -135.87c-1.68,3.74 -3.56,7.92 -5.19,12.67 -1.63,4.74 -3.22,10.49 -3.96,18.16 -0.74,7.67 -0.63,17.25 -0.53,26.84 -0.45,-3.99 -0.9,-7.99 -1.35,-10.95 -0.45,-2.96 -0.9,-4.9 -1.63,-6.82 -0.73,-1.92 -1.75,-3.83 -1.24,-8.03 0.51,-4.21 2.56,-10.72 5.09,-16.34 2.54,-5.62 5.78,-10.79 8.81,-15.52z"/>
   <path class="fil2" d="M17.99 91.34l0 0.6c-0.87,-0.09 -1.86,0.04 -2.94,0.37 -1.08,0.35 -1.72,0.83 -1.92,1.48 -0.2,0.65 -0.3,2.17 -0.3,4.59l0 47.68c0,2.59 0.11,4.17 0.34,4.75 0.22,0.58 0.67,1.05 1.33,1.42 0.64,0.39 1.81,0.58 3.48,0.58l0 0.6 -17.99 0 0 -0.6c2.27,0 3.69,-0.4 4.23,-1.19 0.55,-0.81 0.83,-2.63 0.83,-5.47l0 -47.21c0,-2.95 -0.31,-4.88 -0.92,-5.8 -0.61,-0.91 -2,-1.31 -4.14,-1.19l0 -0.6 17.99 0zm62.21 0l12.93 0 0 0.6c-1.94,0.06 -3.28,0.45 -4.03,1.17 -0.75,0.7 -1.13,2.21 -1.13,4.53l0 56.55 -53.88 -52.76 0 45.93c0,1.47 0.13,2.55 0.36,3.25 0.25,0.7 0.59,1.18 1.03,1.42 0.45,0.26 1.59,0.5 3.39,0.76l0 0.6 -12.84 0 0 -0.6c2.31,0 3.75,-0.37 4.31,-1.14 0.56,-0.76 0.84,-2.58 0.84,-5.44l0 -42.03c0,-3.67 -0.56,-6.68 -1.67,-9.01 -1.11,-2.34 -3.67,-3.42 -7.7,-3.25l0 -0.6 12.63 0 50.62 49.55 0 -43.85c0,-2.36 -0.45,-3.8 -1.36,-4.32 -0.92,-0.52 -2.09,-0.78 -3.51,-0.78l0 -0.6zm85.72 61.48l0 0.6 -27.17 0c-5.22,0 -9.79,-0.52 -13.71,-1.57 -3.92,-1.04 -7.92,-3.01 -11.98,-5.93 -4.08,-2.91 -7.37,-6.53 -9.88,-10.86 -2.51,-4.33 -3.78,-8.76 -3.78,-13.3 0,-4.96 1.58,-9.9 4.73,-14.82 3.17,-4.92 7.65,-8.94 13.49,-12.02 5.83,-3.08 12.43,-4.62 19.82,-4.62 6.62,0 13.62,1.37 21,4.09l2.8 7.23 -0.63 0c-2.36,-2.76 -5.56,-5.05 -9.64,-6.87 -4.08,-1.81 -8.62,-2.72 -13.62,-2.72 -8.7,0 -15.84,3.01 -21.38,9.04 -5.56,6.02 -8.34,13.48 -8.34,22.42 0,3.7 0.45,7.01 1.37,9.92 0.92,2.91 2.62,5.77 5.15,8.59 2.51,2.82 5.22,4.89 8.09,6.23 2.89,1.33 6.12,2.26 9.68,2.78 3.58,0.52 6.42,0.75 8.51,0.69l3.62 -0.09c4.09,-0.14 6.64,-0.49 7.67,-1.05 1.01,-0.56 1.53,-2 1.53,-4.3l0 -9.4c0,-1.83 -0.41,-3.05 -1.23,-3.69 -0.83,-0.63 -2.02,-0.91 -3.54,-0.82l0 -0.6 17.43 0 0 0.6c-1.94,0 -3.25,0.35 -3.89,1.05 -0.65,0.7 -0.98,2.06 -0.98,4.06l0 9.81c0,1.97 0.28,3.4 0.84,4.24 0.56,0.86 1.59,1.3 3.08,1.3l0.95 0zm5.14 -60.87l0 -0.6 42.45 0 0 8.55 -0.66 0c-0.92,-3.2 -1.69,-5.07 -2.31,-5.63 -0.64,-0.56 -2.17,-0.85 -4.62,-0.85l-22.3 0 0 27.89 20.71 0c2.06,0 3.36,-0.17 3.9,-0.53 0.55,-0.35 0.84,-0.86 0.87,-1.54l0.66 0 0 5.87 -0.66 0c-0.16,-0.82 -0.52,-1.37 -1.08,-1.65 -0.56,-0.27 -1.61,-0.42 -3.16,-0.42l-21.25 0 0 19.17c0,2.91 0.3,4.99 0.87,6.26 0.58,1.28 1.5,2.09 2.78,2.4 1.27,0.33 3.19,0.49 5.75,0.49l11.93 0c3.79,0 6.21,-0.12 7.28,-0.36 1.05,-0.23 1.94,-0.72 2.67,-1.42 0.73,-0.72 1.31,-2.27 1.7,-4.69l0.66 0 0 8.55 -46.2 0 0 -0.6c1.56,-0.09 2.75,-0.36 3.56,-0.82 0.81,-0.46 1.22,-1.67 1.22,-3.61l0 -50.24c0,-2.27 -0.22,-3.89 -0.64,-4.81 -0.44,-0.94 -1.81,-1.4 -4.14,-1.4zm297.13 -0.6l12.93 0 0 0.6c-1.94,0.06 -3.28,0.45 -4.03,1.17 -0.75,0.7 -1.13,2.21 -1.13,4.53l0 56.55 -53.88 -52.76 0 45.93c0,1.47 0.13,2.55 0.36,3.25 0.25,0.7 0.59,1.18 1.03,1.42 0.45,0.26 1.59,0.5 3.39,0.76l0 0.6 -12.84 0 0 -0.6c2.31,0 3.75,-0.37 4.31,-1.14 0.56,-0.76 0.84,-2.58 0.84,-5.44l0 -42.03c0,-3.67 -0.56,-6.68 -1.67,-9.01 -1.11,-2.34 -3.67,-3.42 -7.7,-3.25l0 -0.6 12.63 0 50.62 49.55 0 -43.85c0,-2.36 -0.45,-3.8 -1.36,-4.32 -0.92,-0.52 -2.09,-0.78 -3.51,-0.78l0 -0.6zm37.28 0l0 0.6c-0.87,-0.09 -1.86,0.04 -2.94,0.37 -1.08,0.35 -1.72,0.83 -1.92,1.48 -0.2,0.65 -0.3,2.17 -0.3,4.59l0 47.68c0,2.59 0.11,4.17 0.34,4.75 0.22,0.58 0.67,1.05 1.33,1.42 0.64,0.39 1.81,0.58 3.48,0.58l0 0.6 -17.99 0 0 -0.6c2.26,0 3.69,-0.4 4.23,-1.19 0.55,-0.81 0.83,-2.63 0.83,-5.47l0 -47.21c0,-2.95 -0.31,-4.88 -0.92,-5.8 -0.61,-0.91 -2,-1.31 -4.14,-1.19l0 -0.6 17.99 0zm44.03 -1.03c9.46,0 17.21,2.66 23.22,7.97 6.01,5.31 9.01,11.93 9.01,19.87 0,10.23 -3.48,18.84 -10.43,25.83 -6.96,6.98 -16.19,10.48 -27.71,10.48 -9.34,0 -16.98,-2.82 -22.93,-8.45 -5.95,-5.64 -8.93,-12.41 -8.93,-20.29 0,-5.32 1.44,-10.79 4.31,-16.39 2.86,-5.61 7.18,-10.19 12.95,-13.71 5.76,-3.54 12.6,-5.31 20.51,-5.31zm-0.27 60.87c4.64,0 9.21,-1.15 13.73,-3.44 4.51,-2.3 8.08,-5.47 10.67,-9.5 2.59,-4.03 3.89,-8.17 3.89,-12.43 0,-6.03 -1.75,-11.51 -5.23,-16.45 -3.5,-4.94 -8.03,-8.79 -13.6,-11.58 -5.56,-2.79 -10.71,-4.19 -15.43,-4.19 -6.69,0 -12.74,2.33 -18.2,6.98 -5.45,4.65 -8.17,10.43 -8.17,17.34 0,8.82 3.33,16.56 9.98,23.25 6.65,6.68 14.1,10.02 22.36,10.02z"/>
  </g>
 </g>
</svg>
