<?xml version="1.0" encoding="UTF-8"?>
<!DOCTYPE svg  PUBLIC '-//W3C//DTD SVG 1.1//EN'  'http://www.w3.org/Graphics/SVG/1.1/DTD/svg11.dtd'>
<svg width="80px" height="45px" clip-rule="evenodd" fill-rule="evenodd" image-rendering="optimizeQuality" shape-rendering="geometricPrecision" text-rendering="geometricPrecision" version="1.1" viewBox="0 0 502.8 280.47" xml:space="preserve" xmlns="http://www.w3.org/2000/svg">
 <defs>
  <style type="text/css">
   <![CDATA[
    .fil1 {fill:white}
    .fil0 {fill:white;fill-rule:nonzero}
   ]]>
  </style>
 </defs>
 
  
  <path class="fil0" d="m0 192.24 56.49-153.95h19.78l-53.67 152.54h94.63v18.36h-117.23v-16.95zm80.5-70.62h19.78v118.64h-19.78v-118.64z"/>
  
   <path class="fil1" d="m149.71 39.71c-1.41 36.72 8.48 16.94 22.6 28.24 21.18 19.78 8.47 25.43 19.77 31.08 0 1.41 24.01 9.88 18.36-21.19-16.95-8.47-14.12 1.41-25.42-9.89-24.01-22.59 8.47-39.54 9.89-39.54 14.12-4.24 19.77 2.82 15.53-24.01-36.72-14.13-11.3 8.47-39.54 29.66-7.06 4.23-11.3 2.82-21.19 5.65z"/>
   <path class="fil1" d="m152.54 75.02c-15.54 25.42 12.71 24.01 21.18 28.24 9.89 4.24 19.77 18.36 4.24 33.9-11.3 12.71-7.06 5.65-28.25 9.89-1.41 22.59-2.82 25.42 21.19 25.42 4.23-14.13 5.65-18.36 14.12-26.84 18.36-19.77 22.6-2.82 25.42-19.77 4.24-19.77-14.12-11.3-25.42-21.19-16.95-14.12-2.82-39.54-32.48-29.65z"/>
   <path class="fil1" d="m151.12 185.18-1.41 21.19c12.71 4.23 22.6-1.42 33.9 16.94 7.06 9.89-5.65 31.08 26.83 16.95 4.24-22.6-1.41-18.36-15.53-22.6-7.06-2.82-1.42 0-8.48-8.47-4.24-5.65-4.24-5.65-9.89-8.47 0-15.54 4.24-15.54 12.72-24.01 7.06-7.07 25.42-7.07 22.59-21.19-4.23-5.65-7.06-11.3-16.94-9.89-16.95 4.24-1.42 21.19-21.19 33.9-7.06 4.24-11.3 1.41-22.6 5.65z"/>
   <path class="fil1" d="m149.71 241.67c19.77 7.06 15.54-1.41 28.25 11.3 11.3 12.71 4.24 7.06 8.47 19.78 4.24 11.29 15.54 7.06 21.19 5.65 9.88-16.95-2.83-12.72 11.3-26.84 12.71-14.12 8.47-4.24 26.83-11.3 5.65-28.24-18.36-28.24-24.01-11.3-2.82 8.48 2.83 0-1.41 8.48 0 0-7.06 7.06-8.48 8.47-7.06 7.06-4.23 8.48-19.77 8.48 2.83-2.83-5.65-7.06-9.88-11.3-9.89-11.3-2.83-9.89-8.48-24.01-22.6-2.83-25.42 1.41-24.01 22.6v-0.01z"/>
   <path class="fil1" d="m261.29 41.12c-9.89 22.6 12.71 26.83 19.77 16.95 7.06-12.71-5.65-5.65 9.89-21.19 12.71-12.71 18.36-14.12 32.48 1.41 8.48 9.89 4.24 9.89 8.48 25.43h15.53c9.89-9.89 8.48-8.48 7.06-24.01-21.18-7.07-12.71 2.82-29.65-14.13-11.3-11.3-1.42-19.77-15.54-24.01-18.36-4.24-14.13 15.54-19.77 24.01-9.89 15.54-18.37 11.3-28.25 15.54z"/>
   <path class="fil1" d="m296.6 59.48c15.53 9.89 8.47-2.83 24.01 12.71 11.29 11.3 14.12 19.77 0 31.07-9.89 9.89-2.83 4.24-12.72 7.07-35.3 8.47 0 40.95 9.89 16.94 1.41-2.82 0-22.59 18.36-26.83h7.06c12.71-2.83 12.71-9.89 11.3-24.01-18.36-7.06-12.71 1.41-26.83-11.3-16.95-15.54-1.42-7.06-11.3-25.42-19.78-7.07-28.25 1.41-19.78 19.77h0.01z"/>
   <path class="fil1" d="m296.6 257.21c-4.24 9.89-7.07 21.19 8.47 22.6 24.01 4.23 4.24-12.71 25.42-29.66 9.89-8.48 9.89-2.83 24.01-8.48 1.42-7.06 2.83-14.12-2.82-19.77-7.06-7.06-22.6 1.41-31.07-19.77-4.24-11.3 1.41-7.06-7.07-18.36-14.12-2.83-26.83 4.23-16.94 18.36 7.06 12.71 15.53-1.41 28.24 14.12 8.48 11.3 5.65 19.77-1.41 26.84-16.95 16.94-11.3 5.64-26.83 14.12z"/>
   <path class="fil1" d="m186.43 39.71c-2.82 24.01 0 25.42 22.6 22.59 7.06-18.36-2.83-12.71 9.89-24.01 16.94-16.94 7.06-5.65 25.42-14.12 4.24-8.47 4.24-11.3 0-19.77-28.25-12.71-18.36 7.06-24.01 16.94-1.41 0-12.71 12.72-12.71 12.72-5.65 4.23-12.71 2.82-21.19 5.65z"/>
   <path class="fil1" d="m299.42 217.66c-5.65 9.89-7.06 25.43-21.19 33.9-11.29 7.06-29.65 0-16.94 26.84l18.36 1.41c5.65-14.13 0-14.13 9.88-25.43 14.13-16.94 8.48-4.23 26.84-12.71l1.41-4.23c2.83-11.3 2.83-11.3-4.24-18.36l-14.12-1.42z"/>
   <path class="fil1" d="m351.68 206.37c1.41 0 1.41-2.83 1.41-1.42l2.83-7.06c0-5.65-1.42-9.88-1.42-14.12-8.47-2.83-32.48 0-35.31-22.6-4.23-38.13-46.6 1.41-14.12 11.3 2.83 0 19.77-4.24 24.01 22.6 1.41 11.3 8.47 14.12 14.12 14.12 16.95 0 4.24 0 8.48-2.82z"/>
   <path class="fil1" d="m224.56 41.12c-2.82 5.65-7.06 18.36 7.07 22.6 18.36 4.23 8.47-11.3 25.42-29.66 8.47-7.06 2.82-4.24 14.12-7.06 15.54-4.24 14.13-11.3 8.48-22.6-24.01-11.3-18.36 2.82-22.6 16.95-7.06 15.53-28.25 16.94-32.48 19.77h-0.01z"/>
   <path class="fil1" d="m225.98 279.81h16.95c5.65-8.48 2.82-26.84 19.77-33.9l11.3-2.82c1.41 0 2.82-1.42 2.82-1.42 9.89-2.82 8.48-22.59-5.65-22.59-14.12-1.42-11.29 14.12-16.94 21.18-21.19 26.84-42.38 7.06-28.25 39.55z"/>
   <path class="fil1" d="m337.55 141.4c-5.64 12.71-12.71 11.3-2.82 29.66 21.19 4.23 26.83-7.07 15.54-24.01-9.89-14.13 7.06-8.48 5.65-26.84-1.42-15.54-24.01-14.12-26.84 0-2.83 15.54 4.24 11.3 8.47 21.19z"/>
   <path class="fil1" d="m295.18 96.2c5.65 4.24-5.65 1.41 7.06 4.24 32.49 5.65 14.13-43.79-5.64-24.01-8.48 8.47-1.42 18.36-1.42 19.77z"/>
   <path class="fil1" d="m206.21 182.36c-21.19-4.24-29.66 14.12-16.95 24.01 12.71 9.88 31.07-4.24 16.95-24.01z"/>
   <path class="fil1" d="m155.36 135.75h18.36c12.71-40.96-43.78-32.49-18.36 0z"/>
  
  <path class="fil0" d="m385.57 202.13 55.09-153.95h21.18l-53.67 152.54h94.63v18.35h-117.23v-16.94zm80.51-70.62h19.77v118.64h-19.77v-118.64z"/>
 
</svg>
