<?xml version="1.0" encoding="UTF-8"?>
<!DOCTYPE svg PUBLIC "-//W3C//DTD SVG 1.1//EN" "http://www.w3.org/Graphics/SVG/1.1/DTD/svg11.dtd">
<!-- Creator: CorelDRAW -->
<svg xmlns="http://www.w3.org/2000/svg" xml:space="preserve" width="200px" height="169px" version="1.1" style="shape-rendering:geometricPrecision; text-rendering:geometricPrecision; image-rendering:optimizeQuality; fill-rule:evenodd; clip-rule:evenodd"
viewBox="0 0 7.61 6.43"
 xmlns:xlink="http://www.w3.org/1999/xlink"
 xmlns:xodm="http://www.corel.com/coreldraw/odm/2003">
 <defs>
  <style type="text/css">
   <![CDATA[
    .fil1 {fill:white}
    .fil0 {fill:white;fill-rule:nonzero}
   ]]>
  </style>
 </defs>
 <g id="Capa_x0020_1">
  <metadata id="CorelCorpID_0Corel-Layer"/>
  <path class="fil0" d="M0.15 1.87l0.68 -1.87 0.25 0 -0.65 1.85 1.14 0 0 0.22 -1.42 0 0 -0.2zm0.98 -0.86l0.24 0 0 1.43 -0.24 0 0 -1.43z"/>
  <polygon class="fil0" points="0,4.99 0.14,4.99 0.78,6.22 0.74,6.21 0.74,4.99 0.88,4.99 0.88,6.41 0.74,6.41 0.09,5.18 0.14,5.19 0.14,6.41 0,6.41 "/>
  <path id="_1" class="fil0" d="M1.48 6.43c-0.08,0 -0.14,-0.02 -0.19,-0.05 -0.06,-0.02 -0.1,-0.07 -0.13,-0.12 -0.02,-0.06 -0.04,-0.12 -0.04,-0.2l0 -0.32c0,-0.07 0.02,-0.14 0.04,-0.19 0.03,-0.06 0.07,-0.1 0.13,-0.13 0.05,-0.03 0.11,-0.04 0.19,-0.04 0.07,0 0.14,0.01 0.19,0.04 0.05,0.03 0.09,0.07 0.12,0.13 0.03,0.05 0.04,0.12 0.04,0.19l0 0.32c0,0.08 -0.01,0.14 -0.04,0.2 -0.03,0.05 -0.07,0.1 -0.12,0.12 -0.05,0.03 -0.12,0.05 -0.19,0.05zm0 -0.13c0.07,0 0.12,-0.02 0.16,-0.07 0.03,-0.04 0.05,-0.09 0.05,-0.17l0 -0.32c0,-0.07 -0.02,-0.13 -0.05,-0.17 -0.04,-0.04 -0.09,-0.06 -0.16,-0.06 -0.07,0 -0.12,0.02 -0.16,0.06 -0.04,0.04 -0.06,0.1 -0.06,0.17l0 0.32c0,0.08 0.02,0.13 0.06,0.17 0.04,0.05 0.09,0.07 0.16,0.07z"/>
  <path id="_2" class="fil0" d="M2.34 6.42c-0.08,0 -0.14,-0.02 -0.18,-0.07 -0.04,-0.05 -0.06,-0.11 -0.06,-0.2l0 -1.05 0.14 0 0 1.05c0,0.04 0.01,0.08 0.03,0.1 0.02,0.03 0.05,0.04 0.09,0.04l0.09 0 0 0.13 -0.11 0zm-0.34 -1.02l0.45 0 0 0.12 -0.45 0 0 -0.12z"/>
  <path id="_3" class="fil0" d="M3.14 4.99l0.14 0 0 1.42 -0.14 0 0 -1.42zm0.1 0.66l0.58 0 0 0.13 -0.58 0 0 -0.13zm0 -0.66l0.66 0 0 0.13 -0.66 0 0 -0.13z"/>
  <path id="_4" class="fil0" d="M4.4 6.43c-0.07,0 -0.14,-0.02 -0.19,-0.05 -0.05,-0.02 -0.09,-0.07 -0.12,-0.12 -0.03,-0.06 -0.04,-0.12 -0.04,-0.2l0 -0.32c0,-0.07 0.01,-0.14 0.04,-0.19 0.03,-0.06 0.07,-0.1 0.12,-0.13 0.05,-0.03 0.12,-0.04 0.19,-0.04 0.08,0 0.14,0.01 0.19,0.04 0.06,0.03 0.1,0.07 0.13,0.13 0.02,0.05 0.04,0.12 0.04,0.19l0 0.32c0,0.08 -0.02,0.14 -0.04,0.2 -0.03,0.05 -0.07,0.1 -0.13,0.12 -0.05,0.03 -0.11,0.05 -0.19,0.05zm0 -0.13c0.07,0 0.12,-0.02 0.16,-0.07 0.04,-0.04 0.06,-0.09 0.06,-0.17l0 -0.32c0,-0.07 -0.02,-0.13 -0.06,-0.17 -0.04,-0.04 -0.09,-0.06 -0.16,-0.06 -0.07,0 -0.12,0.02 -0.16,0.06 -0.03,0.04 -0.05,0.1 -0.05,0.17l0 0.32c0,0.08 0.02,0.13 0.05,0.17 0.04,0.05 0.09,0.07 0.16,0.07z"/>
  <path id="_5" class="fil0" d="M5.54 5.4l0.14 0 0 1.01 -0.14 0 0 -1.01zm-0.43 0.68c0,0.07 0.02,0.12 0.06,0.16 0.04,0.04 0.09,0.06 0.16,0.06 0.07,0 0.12,-0.02 0.16,-0.06 0.03,-0.03 0.05,-0.08 0.05,-0.15l0.02 0.17c-0.03,0.05 -0.06,0.09 -0.11,0.12 -0.05,0.03 -0.11,0.05 -0.18,0.05 -0.09,0 -0.17,-0.03 -0.22,-0.09 -0.05,-0.06 -0.08,-0.15 -0.08,-0.26l0 -0.68 0.14 0 0 0.68z"/>
  <path id="_6" class="fil0" d="M5.94 5.4l0.14 0 0 1.01 -0.14 0 0 -1.01zm0.58 0.35c0,-0.08 -0.02,-0.14 -0.06,-0.18 -0.03,-0.04 -0.09,-0.06 -0.16,-0.06 -0.07,0 -0.12,0.02 -0.16,0.06 -0.04,0.04 -0.06,0.09 -0.06,0.17l-0.02 -0.17c0.03,-0.07 0.07,-0.11 0.12,-0.15 0.05,-0.03 0.11,-0.04 0.18,-0.04 0.1,0 0.17,0.03 0.22,0.09 0.06,0.06 0.08,0.16 0.08,0.27l0 0.67 -0.14 0 0 -0.66z"/>
  <path id="_7" class="fil0" d="M7.47 4.99l0.14 0 0 1.42 -0.14 0 0 -1.42zm-0.27 1.44c-0.06,0 -0.12,-0.02 -0.16,-0.04 -0.05,-0.03 -0.08,-0.07 -0.11,-0.13 -0.02,-0.05 -0.03,-0.11 -0.03,-0.19l0 -0.33c0,-0.07 0.01,-0.14 0.03,-0.19 0.03,-0.06 0.06,-0.1 0.1,-0.13 0.05,-0.03 0.1,-0.04 0.17,-0.04 0.06,0 0.12,0.01 0.17,0.04 0.05,0.03 0.09,0.08 0.12,0.14l-0.02 0.17c0,-0.04 -0.01,-0.08 -0.03,-0.12 -0.02,-0.03 -0.04,-0.06 -0.07,-0.08 -0.03,-0.02 -0.07,-0.03 -0.12,-0.03 -0.06,0 -0.12,0.02 -0.16,0.07 -0.03,0.04 -0.05,0.1 -0.05,0.18l0 0.32c0,0.08 0.02,0.13 0.05,0.17 0.04,0.05 0.1,0.07 0.16,0.07 0.05,0 0.09,-0.01 0.12,-0.03 0.03,-0.02 0.05,-0.05 0.07,-0.09 0.02,-0.03 0.03,-0.07 0.03,-0.11l0.01 0.17c-0.02,0.06 -0.06,0.11 -0.11,0.14 -0.04,0.02 -0.1,0.04 -0.17,0.04z"/>
  <g id="_2776982871680">
   <path class="fil1" d="M2.23 1.14c-0.02,0.44 0.11,0.21 0.27,0.35 0.27,0.23 0.11,0.31 0.24,0.38 0.01,0 0.3,0.1 0.22,-0.27 -0.2,-0.1 -0.16,0.02 -0.3,-0.12 -0.29,-0.27 0.1,-0.48 0.11,-0.48 0.19,-0.05 0.24,0.05 0.2,-0.28 -0.45,-0.18 -0.13,0.11 -0.48,0.35 -0.08,0.06 -0.14,0.03 -0.26,0.07z"/>
   <path class="fil1" d="M2.27 1.58c-0.19,0.31 0.16,0.29 0.25,0.33 0.12,0.06 0.24,0.22 0.06,0.41 -0.14,0.15 -0.09,0.07 -0.34,0.13 -0.02,0.27 -0.05,0.3 0.25,0.3 0.05,-0.17 0.07,-0.22 0.16,-0.32 0.23,-0.24 0.28,-0.04 0.33,-0.24 0.05,-0.24 -0.18,-0.15 -0.31,-0.25 -0.21,-0.18 -0.05,-0.49 -0.4,-0.36z"/>
   <path class="fil1" d="M2.26 2.9l-0.03 0.26c0.15,0.05 0.28,-0.02 0.42,0.2 0.07,0.12 -0.07,0.38 0.31,0.21 0.06,-0.27 -0.01,-0.21 -0.17,-0.28 -0.09,-0.03 -0.04,0 -0.12,-0.1 -0.05,-0.05 -0.05,-0.06 -0.12,-0.1 0.01,-0.18 0.06,-0.19 0.16,-0.28 0.09,-0.09 0.31,-0.1 0.28,-0.26 -0.06,-0.08 -0.09,-0.15 -0.21,-0.12 -0.21,0.05 -0.01,0.25 -0.26,0.4 -0.09,0.05 -0.13,0.02 -0.26,0.07z"/>
   <path class="fil1" d="M2.24 3.6c0.23,0.07 0.17,-0.03 0.33,0.13 0.15,0.14 0.06,0.08 0.11,0.24 0.05,0.14 0.19,0.08 0.25,0.07 0.12,-0.22 -0.03,-0.16 0.14,-0.33 0.15,-0.16 0.11,-0.05 0.33,-0.14 0.06,-0.34 -0.22,-0.34 -0.29,-0.14 -0.03,0.1 0.03,0.01 -0.03,0.11 0,0 -0.08,0.09 -0.09,0.1 -0.09,0.09 -0.06,0.1 -0.24,0.1 0.02,-0.02 -0.07,-0.08 -0.12,-0.14 -0.12,-0.13 -0.05,-0.11 -0.11,-0.29 -0.28,-0.02 -0.3,0.02 -0.28,0.29z"/>
   <path class="fil1" d="M3.59 1.16c-0.13,0.27 0.15,0.33 0.23,0.2 0.09,-0.15 -0.07,-0.06 0.12,-0.25 0.16,-0.16 0.23,-0.17 0.4,0.02 0.1,0.11 0.05,0.11 0.1,0.3l0.2 0c0.11,-0.12 0.09,-0.11 0.08,-0.29 -0.26,-0.09 -0.16,0.04 -0.37,-0.17 -0.12,-0.13 0,-0.24 -0.18,-0.28 -0.22,-0.06 -0.17,0.18 -0.23,0.28 -0.14,0.18 -0.24,0.13 -0.35,0.19z"/>
   <path class="fil1" d="M4.01 1.39c0.19,0.11 0.1,-0.05 0.29,0.14 0.13,0.14 0.17,0.24 0.01,0.39 -0.12,0.11 -0.04,0.04 -0.17,0.07 -0.41,0.11 0.02,0.51 0.13,0.22 0.01,-0.03 -0.01,-0.28 0.21,-0.33l0.1 -0.01c0.15,-0.03 0.16,-0.11 0.14,-0.29 -0.23,-0.08 -0.16,0.02 -0.33,-0.14 -0.2,-0.18 -0.03,-0.08 -0.14,-0.29 -0.23,-0.09 -0.34,0.02 -0.24,0.24z"/>
   <path class="fil1" d="M4.01 3.78c-0.05,0.12 -0.08,0.25 0.1,0.28 0.29,0.03 0.05,-0.17 0.31,-0.37 0.13,-0.1 0.12,-0.04 0.3,-0.1 0.01,-0.08 0.02,-0.17 -0.04,-0.24 -0.08,-0.08 -0.28,0.02 -0.38,-0.24 -0.05,-0.14 0.03,-0.08 -0.08,-0.23 -0.18,-0.02 -0.34,0.06 -0.22,0.24 0.11,0.14 0.2,-0.03 0.35,0.17 0.11,0.13 0.07,0.23 -0.02,0.32 -0.19,0.2 -0.12,0.07 -0.32,0.17z"/>
   <path class="fil1" d="M2.67 1.14c-0.02,0.29 0,0.31 0.28,0.28 0.08,-0.22 -0.03,-0.15 0.12,-0.3 0.2,-0.2 0.09,-0.07 0.32,-0.16 0.04,-0.11 0.04,-0.13 -0.01,-0.25 -0.34,-0.15 -0.22,0.09 -0.3,0.21 0,0 -0.15,0.16 -0.15,0.16 -0.07,0.05 -0.15,0.03 -0.26,0.06z"/>
   <path class="fil1" d="M4.05 3.3c-0.08,0.12 -0.09,0.3 -0.26,0.41 -0.13,0.08 -0.35,0 -0.2,0.33l0.22 0.02c0.07,-0.18 -0.01,-0.18 0.12,-0.32 0.18,-0.2 0.1,-0.06 0.32,-0.15l0.02 -0.05c0.04,-0.13 0.03,-0.14 -0.05,-0.23l-0.17 -0.01z"/>
   <path class="fil1" d="M4.69 3.16c0,0 0.01,-0.03 0.01,-0.02l0.03 -0.09c0,-0.05 -0.01,-0.11 -0.01,-0.17 -0.11,-0.02 -0.39,0.01 -0.43,-0.26 -0.06,-0.47 -0.57,0.01 -0.18,0.12 0.04,0.02 0.24,-0.04 0.3,0.28 0.02,0.14 0.09,0.17 0.17,0.17 0.2,0.01 0.04,0 0.11,-0.03z"/>
   <path class="fil1" d="M3.15 1.16c-0.04,0.07 -0.1,0.22 0.07,0.27 0.22,0.06 0.1,-0.14 0.32,-0.35 0.09,-0.09 0.03,-0.05 0.16,-0.09 0.19,-0.06 0.18,-0.13 0.11,-0.27 -0.29,-0.14 -0.22,0.04 -0.28,0.19 -0.08,0.2 -0.33,0.22 -0.38,0.25z"/>
   <path class="fil1" d="M3.15 4.04l0.22 0.01c0.05,-0.11 0.03,-0.33 0.23,-0.41l0.14 -0.04c0.01,0 0.03,0 0.03,-0.01 0.12,-0.03 0.1,-0.27 -0.06,-0.28 -0.18,-0.02 -0.15,0.17 -0.21,0.26 -0.25,0.33 -0.52,0.09 -0.35,0.47z"/>
   <path class="fil1" d="M4.51 2.37c-0.08,0.16 -0.16,0.14 -0.04,0.36 0.26,0.06 0.33,-0.08 0.19,-0.29 -0.12,-0.17 0.08,-0.1 0.07,-0.32 -0.02,-0.2 -0.28,-0.17 -0.32,0 -0.04,0.19 0.05,0.13 0.1,0.25z"/>
   <path class="fil1" d="M4 1.83c0.07,0.05 -0.08,0.01 0.08,0.04 0.4,0.07 0.18,-0.52 -0.07,-0.28 -0.09,0.09 -0.02,0.22 -0.01,0.24z"/>
   <path class="fil1" d="M2.92 2.88c-0.25,-0.06 -0.36,0.16 -0.21,0.28 0.16,0.12 0.38,-0.04 0.21,-0.28z"/>
   <path class="fil1" d="M2.3 2.3l0.22 0.01c0.17,-0.49 -0.53,-0.39 -0.22,-0.01z"/>
  </g>
  <path class="fil0" d="M5.51 4.03l0.68 -1.87 0.25 0 -0.66 1.85 1.15 0 0 0.21 -1.42 0 0 -0.19zm0.98 -0.87l0.23 0 0 1.44 -0.23 0 0 -1.44z"/>
 </g>
</svg>
