<?xml version="1.0" encoding="UTF-8"?>
<!DOCTYPE svg PUBLIC "-//W3C//DTD SVG 1.1//EN" "http://www.w3.org/Graphics/SVG/1.1/DTD/svg11.dtd">
<!-- Creator: CorelDRAW -->
<svg xmlns="http://www.w3.org/2000/svg" xml:space="preserve" width="161px" height="124px" version="1.1" style="shape-rendering:geometricPrecision; text-rendering:geometricPrecision; image-rendering:optimizeQuality; fill-rule:evenodd; clip-rule:evenodd"
viewBox="0 0 3.9 3"
 xmlns:xlink="http://www.w3.org/1999/xlink"
 xmlns:xodm="http://www.corel.com/coreldraw/odm/2003">
 <defs>
  <style type="text/css">
   <![CDATA[
    .fil1 {fill:white}
    .fil0 {fill:white;fill-rule:nonzero}
   ]]>
  </style>
 </defs>
 <g id="Capa_x0020_1">
  <metadata id="CorelCorpID_0Corel-Layer"/>
  <path class="fil0" d="M0.02 1.36l0.4 -1.09 0.14 0 -0.38 1.08 0.67 0 0 0.13 -0.83 0 0 -0.12zm0.57 -0.5l0.14 0 0 0.84 -0.14 0 0 -0.84z"/>
  <polygon class="fil0" points="0,2.26 0.07,2.26 0.4,2.89 0.38,2.88 0.38,2.26 0.45,2.26 0.45,2.99 0.38,2.99 0.05,2.35 0.07,2.36 0.07,2.99 0,2.99 "/>
  <path id="_1" class="fil0" d="M0.76 3c-0.04,0 -0.07,-0.01 -0.1,-0.03 -0.03,-0.01 -0.05,-0.03 -0.06,-0.06 -0.02,-0.03 -0.02,-0.06 -0.02,-0.1l0 -0.17c0,-0.03 0,-0.07 0.02,-0.1 0.01,-0.02 0.03,-0.05 0.06,-0.06 0.03,-0.02 0.06,-0.02 0.1,-0.02 0.04,0 0.07,0 0.1,0.02 0.02,0.01 0.05,0.04 0.06,0.06 0.01,0.03 0.02,0.07 0.02,0.1l0 0.17c0,0.04 -0.01,0.07 -0.02,0.1 -0.01,0.03 -0.04,0.05 -0.06,0.06 -0.03,0.02 -0.06,0.03 -0.1,0.03zm0 -0.07c0.03,0 0.06,-0.01 0.08,-0.03 0.02,-0.02 0.03,-0.05 0.03,-0.09l0 -0.17c0,-0.03 -0.01,-0.06 -0.03,-0.08 -0.02,-0.03 -0.05,-0.04 -0.08,-0.04 -0.04,0 -0.06,0.01 -0.08,0.04 -0.02,0.02 -0.03,0.05 -0.03,0.08l0 0.17c0,0.04 0.01,0.07 0.03,0.09 0.02,0.02 0.04,0.03 0.08,0.03z"/>
  <path id="_2" class="fil0" d="M1.2 2.99c-0.04,0 -0.07,-0.01 -0.09,-0.03 -0.02,-0.03 -0.03,-0.06 -0.03,-0.11l0 -0.54 0.07 0 0 0.54c0,0.03 0.01,0.04 0.02,0.06 0.01,0.01 0.02,0.01 0.04,0.01l0.04 0 0 0.07 -0.05 0zm-0.18 -0.52l0.23 0 0 0.06 -0.23 0 0 -0.06z"/>
  <path id="_3" class="fil0" d="M1.61 2.26l0.07 0 0 0.73 -0.07 0 0 -0.73zm0.05 0.34l0.3 0 0 0.06 -0.3 0 0 -0.06zm0 -0.34l0.34 0 0 0.06 -0.34 0 0 -0.06z"/>
  <path id="_4" class="fil0" d="M2.26 3c-0.04,0 -0.07,-0.01 -0.1,-0.03 -0.03,-0.01 -0.05,-0.03 -0.06,-0.06 -0.02,-0.03 -0.02,-0.06 -0.02,-0.1l0 -0.17c0,-0.03 0,-0.07 0.02,-0.1 0.01,-0.02 0.03,-0.05 0.06,-0.06 0.03,-0.02 0.06,-0.02 0.1,-0.02 0.04,0 0.07,0 0.1,0.02 0.02,0.01 0.05,0.04 0.06,0.06 0.01,0.03 0.02,0.07 0.02,0.1l0 0.17c0,0.04 -0.01,0.07 -0.02,0.1 -0.01,0.03 -0.04,0.05 -0.06,0.06 -0.03,0.02 -0.06,0.03 -0.1,0.03zm0 -0.07c0.03,0 0.06,-0.01 0.08,-0.03 0.02,-0.02 0.03,-0.05 0.03,-0.09l0 -0.17c0,-0.03 -0.01,-0.06 -0.03,-0.08 -0.02,-0.03 -0.05,-0.04 -0.08,-0.04 -0.04,0 -0.06,0.01 -0.08,0.04 -0.02,0.02 -0.03,0.05 -0.03,0.08l0 0.17c0,0.04 0.01,0.07 0.03,0.09 0.02,0.02 0.04,0.03 0.08,0.03z"/>
  <path id="_5" class="fil0" d="M2.84 2.47l0.07 0 0 0.52 -0.07 0 0 -0.52zm-0.22 0.35c0,0.03 0.01,0.06 0.03,0.08 0.02,0.02 0.05,0.03 0.08,0.03 0.04,0 0.07,-0.01 0.08,-0.03 0.02,-0.02 0.03,-0.04 0.03,-0.08l0.01 0.09c-0.01,0.03 -0.03,0.05 -0.05,0.06 -0.03,0.02 -0.06,0.03 -0.09,0.03 -0.05,0 -0.09,-0.02 -0.12,-0.05 -0.02,-0.03 -0.04,-0.08 -0.04,-0.13l0 -0.35 0.07 0 0 0.35z"/>
  <path id="_6" class="fil0" d="M3.05 2.47l0.07 0 0 0.52 -0.07 0 0 -0.52zm0.3 0.18c0,-0.04 -0.01,-0.07 -0.03,-0.09 -0.02,-0.03 -0.05,-0.04 -0.09,-0.04 -0.03,0 -0.06,0.01 -0.08,0.03 -0.02,0.02 -0.03,0.05 -0.03,0.09l-0.01 -0.09c0.02,-0.03 0.04,-0.05 0.06,-0.07 0.03,-0.02 0.06,-0.02 0.09,-0.02 0.05,0 0.09,0.01 0.12,0.05 0.02,0.03 0.04,0.07 0.04,0.13l0 0.35 -0.07 0 0 -0.34z"/>
  <path id="_7" class="fil0" d="M3.83 2.26l0.07 0 0 0.73 -0.07 0 0 -0.73zm-0.14 0.74c-0.03,0 -0.06,-0.01 -0.08,-0.03 -0.02,-0.01 -0.04,-0.03 -0.05,-0.06 -0.02,-0.03 -0.02,-0.06 -0.02,-0.1l0 -0.17c0,-0.03 0,-0.07 0.02,-0.1 0.01,-0.02 0.03,-0.05 0.05,-0.06 0.02,-0.02 0.05,-0.02 0.08,-0.02 0.03,0 0.06,0 0.09,0.02 0.03,0.02 0.05,0.04 0.06,0.07l-0.01 0.09c0,-0.02 0,-0.04 -0.01,-0.06 -0.01,-0.02 -0.02,-0.03 -0.04,-0.04 -0.02,-0.01 -0.04,-0.02 -0.06,-0.02 -0.03,0 -0.06,0.01 -0.08,0.03 -0.02,0.02 -0.03,0.06 -0.03,0.1l0 0.16c0,0.04 0.01,0.07 0.03,0.09 0.02,0.02 0.05,0.03 0.08,0.03 0.02,0 0.04,0 0.06,-0.01 0.02,-0.01 0.03,-0.03 0.04,-0.04 0.01,-0.02 0.01,-0.04 0.01,-0.06l0.01 0.09c-0.01,0.03 -0.03,0.05 -0.06,0.06 -0.02,0.02 -0.05,0.03 -0.09,0.03z"/>
  <g id="_2967512175568">
   <path class="fil1" d="M1.08 0.28c-0.01,0.26 0.06,0.12 0.16,0.2 0.15,0.14 0.06,0.18 0.14,0.22 0,0.01 0.17,0.07 0.13,-0.15 -0.12,-0.06 -0.1,0.01 -0.18,-0.07 -0.17,-0.16 0.06,-0.28 0.07,-0.28 0.1,-0.03 0.14,0.02 0.11,-0.17 -0.26,-0.1 -0.08,0.06 -0.28,0.21 -0.05,0.03 -0.08,0.02 -0.15,0.04z"/>
   <path class="fil1" d="M1.1 0.53c-0.11,0.18 0.09,0.17 0.15,0.2 0.07,0.03 0.14,0.13 0.03,0.24 -0.08,0.09 -0.05,0.04 -0.2,0.07 -0.01,0.16 -0.02,0.18 0.15,0.18 0.03,-0.1 0.04,-0.13 0.1,-0.19 0.13,-0.14 0.16,-0.02 0.18,-0.14 0.03,-0.14 -0.1,-0.08 -0.18,-0.15 -0.12,-0.1 -0.02,-0.28 -0.23,-0.21z"/>
   <path class="fil1" d="M1.09 1.31l-0.01 0.15c0.09,0.03 0.16,-0.01 0.24,0.12 0.05,0.07 -0.04,0.22 0.19,0.12 0.03,-0.16 -0.01,-0.13 -0.11,-0.16 -0.05,-0.02 -0.01,0 -0.06,-0.06 -0.03,-0.04 -0.03,-0.04 -0.07,-0.06 0,-0.11 0.03,-0.11 0.09,-0.17 0.05,-0.05 0.18,-0.05 0.16,-0.15 -0.03,-0.04 -0.05,-0.08 -0.12,-0.07 -0.12,0.03 -0.01,0.15 -0.15,0.24 -0.05,0.03 -0.08,0.01 -0.16,0.04z"/>
   <path class="fil1" d="M1.08 1.71c0.14,0.05 0.11,-0.01 0.2,0.08 0.08,0.09 0.03,0.05 0.06,0.14 0.03,0.08 0.11,0.05 0.15,0.04 0.07,-0.12 -0.02,-0.09 0.08,-0.19 0.09,-0.1 0.06,-0.03 0.19,-0.08 0.04,-0.2 -0.13,-0.2 -0.17,-0.08 -0.02,0.06 0.02,0 -0.01,0.06 0,0 -0.05,0.05 -0.06,0.06 -0.05,0.05 -0.03,0.06 -0.14,0.06 0.02,-0.02 -0.04,-0.05 -0.07,-0.08 -0.07,-0.08 -0.02,-0.07 -0.06,-0.17 -0.16,-0.02 -0.18,0.01 -0.17,0.16z"/>
   <path class="fil1" d="M1.87 0.29c-0.07,0.16 0.09,0.19 0.14,0.12 0.05,-0.09 -0.04,-0.04 0.07,-0.15 0.09,-0.09 0.13,-0.1 0.23,0.01 0.06,0.07 0.03,0.07 0.06,0.18l0.11 0c0.07,-0.07 0.06,-0.06 0.05,-0.17 -0.15,-0.05 -0.09,0.02 -0.21,-0.1 -0.08,-0.08 -0.01,-0.14 -0.11,-0.17 -0.13,-0.03 -0.1,0.11 -0.14,0.17 -0.07,0.11 -0.13,0.08 -0.2,0.11z"/>
   <path class="fil1" d="M2.12 0.42c0.11,0.07 0.06,-0.02 0.17,0.09 0.08,0.08 0.1,0.14 0,0.22 -0.07,0.07 -0.02,0.03 -0.09,0.05 -0.25,0.06 0,0.29 0.07,0.12 0.01,-0.02 0,-0.16 0.13,-0.19l0.05 0c0.09,-0.02 0.09,-0.07 0.08,-0.17 -0.13,-0.05 -0.09,0.01 -0.19,-0.08 -0.12,-0.11 -0.01,-0.05 -0.08,-0.18 -0.14,-0.05 -0.2,0.01 -0.14,0.14z"/>
   <path class="fil1" d="M2.12 1.82c-0.03,0.07 -0.05,0.15 0.06,0.16 0.17,0.03 0.03,-0.09 0.18,-0.21 0.07,-0.06 0.07,-0.02 0.17,-0.06 0.01,-0.05 0.02,-0.1 -0.02,-0.14 -0.05,-0.05 -0.16,0.01 -0.22,-0.14 -0.03,-0.08 0.01,-0.05 -0.05,-0.13 -0.1,-0.02 -0.19,0.03 -0.12,0.13 0.05,0.09 0.11,-0.01 0.2,0.1 0.06,0.08 0.04,0.14 -0.01,0.19 -0.12,0.12 -0.08,0.04 -0.19,0.1z"/>
   <path class="fil1" d="M1.34 0.28c-0.02,0.17 0,0.18 0.16,0.16 0.05,-0.13 -0.02,-0.09 0.07,-0.17 0.12,-0.12 0.05,-0.04 0.18,-0.1 0.03,-0.06 0.03,-0.08 0,-0.14 -0.2,-0.09 -0.13,0.05 -0.17,0.12 -0.01,0 -0.09,0.09 -0.09,0.09 -0.04,0.03 -0.09,0.02 -0.15,0.04z"/>
   <path class="fil1" d="M2.14 1.54c-0.04,0.07 -0.05,0.18 -0.15,0.24 -0.08,0.05 -0.21,0 -0.12,0.19l0.13 0.01c0.04,-0.1 0,-0.1 0.07,-0.18 0.1,-0.12 0.06,-0.03 0.19,-0.09l0.01 -0.03c0.02,-0.08 0.02,-0.08 -0.03,-0.13l-0.1 -0.01z"/>
   <path class="fil1" d="M2.51 1.46c0.01,0 0.01,-0.02 0.01,-0.01l0.02 -0.05c0,-0.04 -0.01,-0.07 -0.01,-0.1 -0.06,-0.02 -0.23,0 -0.25,-0.16 -0.03,-0.27 -0.33,0.01 -0.1,0.08 0.02,0 0.14,-0.03 0.17,0.16 0.01,0.08 0.06,0.1 0.1,0.1 0.12,0 0.03,0 0.06,-0.02z"/>
   <path class="fil1" d="M1.61 0.29c-0.02,0.04 -0.05,0.13 0.05,0.16 0.13,0.03 0.06,-0.08 0.18,-0.21 0.06,-0.05 0.02,-0.03 0.1,-0.05 0.11,-0.03 0.1,-0.08 0.06,-0.16 -0.17,-0.08 -0.13,0.02 -0.16,0.12 -0.05,0.11 -0.2,0.12 -0.23,0.14z"/>
   <path class="fil1" d="M1.62 1.98l0.12 0c0.04,-0.06 0.02,-0.19 0.14,-0.24l0.08 -0.02c0.01,0 0.02,-0.01 0.02,-0.01 0.07,-0.02 0.06,-0.16 -0.04,-0.16 -0.1,-0.01 -0.08,0.1 -0.12,0.15 -0.15,0.19 -0.3,0.05 -0.2,0.28z"/>
   <path class="fil1" d="M2.41 1c-0.04,0.09 -0.09,0.08 -0.02,0.21 0.15,0.03 0.19,-0.05 0.11,-0.17 -0.07,-0.1 0.05,-0.06 0.04,-0.19 -0.01,-0.11 -0.17,-0.1 -0.19,0 -0.02,0.11 0.03,0.08 0.06,0.15z"/>
   <path class="fil1" d="M2.11 0.68c0.04,0.03 -0.04,0.01 0.05,0.03 0.23,0.04 0.1,-0.31 -0.04,-0.17 -0.06,0.06 -0.01,0.13 -0.01,0.14z"/>
   <path class="fil1" d="M1.48 1.29c-0.15,-0.03 -0.21,0.1 -0.12,0.17 0.09,0.07 0.22,-0.03 0.12,-0.17z"/>
   <path class="fil1" d="M1.12 0.96l0.13 0c0.09,-0.29 -0.31,-0.23 -0.13,0z"/>
  </g>
  <path class="fil0" d="M2.75 1.43l0.39 -1.09 0.15 0 -0.38 1.08 0.67 0 0 0.13 -0.83 0 0 -0.12zm0.57 -0.5l0.14 0 0 0.84 -0.14 0 0 -0.84z"/>
 </g>
</svg>
