<?xml version="1.0" encoding="UTF-8"?>
<!DOCTYPE svg  PUBLIC '-//W3C//DTD SVG 1.1//EN'  'http://www.w3.org/Graphics/SVG/1.1/DTD/svg11.dtd'>
<svg width="90px" height="69px" clip-rule="evenodd" fill-rule="evenodd" image-rendering="optimizeQuality" shape-rendering="geometricPrecision" text-rendering="geometricPrecision" version="1.1" viewBox="0 0 162.24 124.85" xml:space="preserve" xmlns="http://www.w3.org/2000/svg">
 <defs>
  <style type="text/css">
   <![CDATA[
    .fil1 {fill:white}
    .fil0 {fill:white;fill-rule:nonzero}
   ]]>
  </style>
 </defs>
 
  
  
   <path class="fil0" d="m0.83 56.62 16.64-45.34h5.83l-15.81 44.93h27.87v5.41h-34.53v-5zm23.71-20.8h5.83v34.95h-5.83v-34.95z"/>
   <polygon class="fil0" points="0 94.07 2.91 94.07 16.64 120.27 15.81 119.86 15.81 94.07 18.72 94.07 18.72 124.43 15.81 124.43 2.08 97.81 2.91 98.23 2.91 124.43 0 124.43"/>
   <path class="fil0" d="m31.62 124.85c-1.67 0-2.91-0.42-4.16-1.25-1.25-0.41-2.08-1.25-2.5-2.49-0.83-1.25-0.83-2.5-0.83-4.16v-7.08c0-1.24 0-2.91 0.83-4.16 0.42-0.83 1.25-2.08 2.5-2.49 1.25-0.84 2.49-0.84 4.16-0.84 1.66 0 2.91 0 4.16 0.84 0.83 0.41 2.08 1.66 2.49 2.49 0.42 1.25 0.84 2.92 0.84 4.16v7.08c0 1.66-0.42 2.91-0.84 4.16-0.41 1.24-1.66 2.08-2.49 2.49-1.25 0.83-2.5 1.25-4.16 1.25zm0-2.91c1.25 0 2.49-0.42 3.33-1.25 0.83-0.83 1.24-2.08 1.24-3.74v-7.08c0-1.24-0.41-2.49-1.24-3.32-0.84-1.25-2.08-1.67-3.33-1.67-1.67 0-2.5 0.42-3.33 1.67-0.83 0.83-1.25 2.08-1.25 3.32v7.08c0 1.66 0.42 2.91 1.25 3.74s1.66 1.25 3.33 1.25z"/>
   <path class="fil0" d="m49.92 124.43c-1.66 0-2.91-0.41-3.74-1.24-0.83-1.25-1.25-2.5-1.25-4.58v-22.46h2.91v22.46c0 1.25 0.42 1.66 0.83 2.5 0.42 0.41 0.84 0.41 1.67 0.41h1.66v2.91h-2.08zm-7.49-21.63h9.57v2.5h-9.57v-2.5z"/>
   <path class="fil0" d="m66.98 94.07h2.91v30.36h-2.91v-30.36zm2.08 14.14h12.48v2.5h-12.48v-2.5zm0-14.14h14.14v2.49h-14.14v-2.49z"/>
   <path class="fil0" d="m94.02 124.85c-1.67 0-2.91-0.42-4.16-1.25-1.25-0.41-2.08-1.25-2.5-2.49-0.83-1.25-0.83-2.5-0.83-4.16v-7.08c0-1.24 0-2.91 0.83-4.16 0.42-0.83 1.25-2.08 2.5-2.49 1.25-0.84 2.49-0.84 4.16-0.84 1.66 0 2.91 0 4.16 0.84 0.83 0.41 2.08 1.66 2.5 2.49 0.41 1.25 0.83 2.92 0.83 4.16v7.08c0 1.66-0.42 2.91-0.83 4.16-0.42 1.24-1.67 2.08-2.5 2.49-1.25 0.83-2.5 1.25-4.16 1.25zm0-2.91c1.25 0 2.49-0.42 3.33-1.25 0.83-0.83 1.24-2.08 1.24-3.74v-7.08c0-1.24-0.41-2.49-1.24-3.32-0.84-1.25-2.08-1.67-3.33-1.67-1.67 0-2.5 0.42-3.33 1.67-0.83 0.83-1.25 2.08-1.25 3.32v7.08c0 1.66 0.42 2.91 1.25 3.74s1.66 1.25 3.33 1.25z"/>
   <path class="fil0" d="m118.15 102.8h2.91v21.63h-2.91v-21.63zm-9.16 14.56c0 1.25 0.42 2.5 1.25 3.33 0.84 0.83 2.08 1.25 3.33 1.25 1.67 0 2.91-0.42 3.33-1.25 0.83-0.83 1.25-1.66 1.25-3.33l0.41 3.75c-0.41 1.24-1.24 2.08-2.08 2.49-1.24 0.83-2.49 1.25-3.74 1.25-2.08 0-3.74-0.83-4.99-2.08-0.83-1.25-1.67-3.33-1.67-5.41v-14.56h2.92v14.56h-0.01z"/>
   <path class="fil0" d="m126.88 102.8h2.92v21.63h-2.92v-21.63zm12.48 7.49c0-1.66-0.41-2.91-1.24-3.74-0.84-1.25-2.08-1.67-3.75-1.67-1.25 0-2.49 0.42-3.33 1.25-0.83 0.83-1.24 2.08-1.24 3.74l-0.42-3.74c0.83-1.25 1.66-2.08 2.5-2.91 1.24-0.83 2.49-0.83 3.74-0.83 2.08 0 3.74 0.41 4.99 2.08 0.83 1.24 1.67 2.91 1.67 5.4v14.56h-2.92v-14.14z"/>
   <path class="fil0" d="m159.33 94.07h2.91v30.36h-2.91v-30.36zm-5.82 30.78c-1.25 0-2.5-0.42-3.33-1.25-0.83-0.41-1.66-1.25-2.08-2.49-0.83-1.25-0.83-2.5-0.83-4.16v-7.08c0-1.24 0-2.91 0.83-4.16 0.42-0.83 1.25-2.08 2.08-2.49 0.83-0.84 2.08-0.84 3.33-0.84s2.49 0 3.74 0.84c1.25 0.83 2.08 1.66 2.5 2.91l-0.42 3.74c0-0.83 0-1.66-0.41-2.49-0.42-0.84-0.84-1.25-1.67-1.67-0.83-0.41-1.66-0.83-2.49-0.83-1.25 0-2.5 0.42-3.33 1.25s-1.25 2.5-1.25 4.16v6.66c0 1.66 0.42 2.91 1.25 3.74s2.08 1.25 3.33 1.25c0.83 0 1.66 0 2.49-0.42 0.83-0.41 1.25-1.25 1.67-1.66 0.41-0.83 0.41-1.67 0.41-2.5l0.42 3.75c-0.42 1.24-1.25 2.08-2.5 2.49-0.83 0.83-2.08 1.25-3.74 1.25z"/>
   
    <path class="fil1" d="m44.93 11.7c-0.42 10.81 2.5 4.99 6.66 8.32 6.24 5.82 2.49 7.48 5.82 9.15 0 0.41 7.07 2.91 5.41-6.24-4.99-2.5-4.16 0.41-7.49-2.91-7.07-6.66 2.5-11.65 2.91-11.65 4.16-1.25 5.83 0.83 4.58-7.07-10.82-4.16-3.33 2.49-11.65 8.73-2.08 1.25-3.33 0.83-6.24 1.67z"/>
    <path class="fil1" d="m45.76 22.1c-4.57 7.48 3.75 7.07 6.24 8.32 2.91 1.24 5.83 5.4 1.25 9.98-3.33 3.74-2.08 1.66-8.32 2.91-0.42 6.66-0.83 7.49 6.24 7.49 1.25-4.16 1.66-5.41 4.16-7.9 5.41-5.83 6.66-0.84 7.49-5.83 1.25-5.82-4.16-3.33-7.49-6.24-4.99-4.16-0.83-11.65-9.57-8.73z"/>
    <path class="fil1" d="m45.35 54.54-0.42 6.24c3.74 1.25 6.66-0.41 9.98 5 2.08 2.91-1.66 9.15 7.91 4.99 1.25-6.66-0.42-5.41-4.58-6.66-2.08-0.83-0.41 0-2.49-2.49-1.25-1.67-1.25-1.67-2.92-2.5 0-4.58 1.25-4.58 3.75-7.07 2.08-2.08 7.49-2.08 6.65-6.24-1.24-1.67-2.08-3.33-4.99-2.91-4.99 1.24-0.41 6.24-6.24 9.98-2.08 1.25-3.33 0.42-6.65 1.66z"/>
    <path class="fil1" d="m44.93 71.18c5.82 2.08 4.58-0.41 8.32 3.33 3.33 3.75 1.25 2.08 2.5 5.83 1.24 3.33 4.57 2.08 6.24 1.66 2.91-4.99-0.84-3.74 3.32-7.9 3.75-4.16 2.5-1.25 7.91-3.33 1.66-8.32-5.41-8.32-7.07-3.33-0.84 2.5 0.83 0-0.42 2.5 0 0-2.08 2.08-2.5 2.49-2.08 2.08-1.24 2.5-5.82 2.5 0.83-0.83-1.66-2.08-2.91-3.33-2.91-3.33-0.83-2.91-2.5-7.07-6.65-0.83-7.49 0.42-7.07 6.66v-0.01z"/>
    <path class="fil1" d="m77.79 12.11c-2.91 6.66 3.75 7.91 5.83 4.99 2.08-3.74-1.67-1.66 2.91-6.24 3.74-3.74 5.41-4.16 9.57 0.42 2.5 2.91 1.25 2.91 2.5 7.49h4.57c2.91-2.91 2.5-2.5 2.08-7.07-6.24-2.08-3.74 0.83-8.73-4.16-3.33-3.33-0.42-5.83-4.58-7.08-5.41-1.24-4.16 4.58-5.83 7.08-2.91 4.57-5.4 3.32-8.32 4.57z"/>
    <path class="fil1" d="m88.19 17.52c4.58 2.91 2.5-0.83 7.08 3.74 3.32 3.33 4.16 5.83 0 9.16-2.92 2.91-0.84 1.24-3.75 2.08-10.4 2.49 0 12.06 2.91 4.99 0.42-0.83 0-6.66 5.41-7.91h2.08c3.75-0.83 3.75-2.91 3.33-7.07-5.41-2.08-3.74 0.42-7.9-3.33-5-4.57-0.42-2.08-3.33-7.48-5.83-2.08-8.32 0.41-5.83 5.82z"/>
    <path class="fil1" d="m88.19 75.76c-1.24 2.91-2.08 6.24 2.5 6.66 7.07 1.25 1.25-3.75 7.49-8.74 2.91-2.5 2.91-0.83 7.07-2.5 0.42-2.08 0.83-4.16-0.83-5.82-2.08-2.08-6.66 0.42-9.15-5.82-1.25-3.33 0.41-2.08-2.08-5.41-4.16-0.83-7.91 1.25-5 5.41 2.08 3.74 4.58-0.42 8.32 4.16 2.5 3.32 1.67 5.82-0.41 7.9-4.99 4.99-3.33 1.66-7.91 4.16z"/>
    <path class="fil1" d="m55.75 11.7c-0.84 7.07 0 7.48 6.65 6.65 2.08-5.41-0.83-3.74 2.91-7.07 5-4.99 2.08-1.66 7.49-4.16 1.25-2.5 1.25-3.33 0-5.83-8.32-3.74-5.41 2.08-7.07 5-0.42 0-3.74 3.74-3.74 3.74-1.67 1.25-3.75 0.83-6.24 1.67z"/>
    <path class="fil1" d="m89.03 64.11c-1.67 2.91-2.08 7.49-6.24 9.99-3.33 2.08-8.74 0-5 7.9l5.41 0.42c1.67-4.16 0-4.16 2.91-7.49 4.16-4.99 2.5-1.25 7.91-3.75l0.41-1.24c0.84-3.33 0.84-3.33-1.24-5.41l-4.16-0.42z"/>
    <path class="fil1" d="m104.42 60.78c0.41 0 0.41-0.83 0.41-0.41l0.84-2.08c0-1.66-0.42-2.91-0.42-4.16-2.5-0.83-9.57 0-10.4-6.66-1.25-11.23-13.73 0.42-4.16 3.33 0.83 0 5.82-1.25 7.07 6.66 0.42 3.32 2.5 4.16 4.16 4.16 5 0 1.25 0 2.5-0.84z"/>
    <path class="fil1" d="m66.98 12.11c-0.83 1.67-2.08 5.41 2.08 6.66 5.41 1.25 2.49-3.33 7.49-8.74 2.49-2.08 0.83-1.25 4.16-2.08 4.57-1.25 4.16-3.33 2.49-6.65-7.07-3.33-5.41 0.83-6.65 4.99-2.08 4.57-8.32 4.99-9.57 5.82z"/>
    <path class="fil1" d="m67.39 82.42h5c1.66-2.5 0.83-7.91 5.82-9.99l3.33-0.83c0.41 0 0.83-0.42 0.83-0.42 2.91-0.83 2.5-6.65-1.66-6.65-4.16-0.42-3.33 4.16-5 6.24-6.24 7.9-12.48 2.08-8.32 11.65z"/>
    <path class="fil1" d="m100.26 41.65c-1.67 3.74-3.75 3.33-0.83 8.73 6.24 1.25 7.9-2.08 4.57-7.07-2.91-4.16 2.08-2.49 1.67-7.9-0.42-4.58-7.08-4.16-7.91 0-0.83 4.57 1.25 3.33 2.5 6.24z"/>
    <path class="fil1" d="m87.78 28.34c1.66 1.24-1.67 0.41 2.08 1.24 9.57 1.67 4.16-12.89-1.67-7.07-2.49 2.5-0.41 5.41-0.41 5.83z"/>
    <path class="fil1" d="m61.57 53.71c-6.24-1.25-8.74 4.16-4.99 7.07 3.74 2.92 9.15-1.24 4.99-7.07z"/>
    <path class="fil1" d="m46.59 39.98h5.41c3.75-12.06-12.89-9.56-5.41 0z"/>
   
   <path class="fil0" d="m114.4 59.54 16.23-45.35h6.24l-15.81 44.93h27.87v5.41h-34.53v-4.99zm23.72-20.8h5.82v34.94h-5.82v-34.94z"/>
  
 
</svg>
